<?xml version="1.0" encoding="utf-8"?>
<!-- Generator: Adobe Illustrator 27.0.1, SVG Export Plug-In . SVG Version: 6.00 Build 0)  -->
<svg version="1.1" id="Layer_1" xmlns="http://www.w3.org/2000/svg" xmlns:xlink="http://www.w3.org/1999/xlink" x="0px" y="0px"
	 viewBox="0 0 640 512" style="enable-background:new 0 0 640 512;" xml:space="preserve">
<style type="text/css">
	.st0{fill:#404040;}
</style>
<path class="st0" d="M106.5,173.2v30.8c0,17,13.8,30.8,30.8,30.8h123.3c17,0,30.8-13.8,30.8-30.8V80.7c0-17-13.8-30.8-30.8-30.8
	H137.3c-17,0-30.8,13.8-30.8,30.8v30.8V173.2z M245.2,188.6h-92.5V96.1h92.5V188.6z"/>
<path class="st0" d="M328.7,398.4v30.8c0,17,13.8,30.8,30.8,30.8h123.3c17,0,30.8-13.8,30.8-30.8V305.9c0-17-13.8-30.8-30.8-30.8
	H359.5c-17,0-30.8,13.8-30.8,30.8v30.8V398.4z M467.4,413.8h-92.5v-92.5h92.5V413.8z"/>
<path class="st0" d="M328.7,173.2v30.8c0,17,13.8,30.8,30.8,30.8h123.3c17,0,30.8-13.8,30.8-30.8V80.7c0-17-13.8-30.8-30.8-30.8
	H359.5c-17,0-30.8,13.8-30.8,30.8v30.8V173.2z"/>
<path class="st0" d="M106,398.4v30.8c0,17,13.8,30.8,30.8,30.8h123.3c17,0,30.8-13.8,30.8-30.8V305.9c0-17-13.8-30.8-30.8-30.8
	H136.9c-17,0-30.8,13.8-30.8,30.8v30.8V398.4z"/>
</svg>
