<?xml version="1.0" encoding="utf-8"?>
<!-- Generator: Adobe Illustrator 27.0.1, SVG Export Plug-In . SVG Version: 6.00 Build 0)  -->
<svg version="1.1" id="Layer_1" xmlns="http://www.w3.org/2000/svg" xmlns:xlink="http://www.w3.org/1999/xlink" x="0px" y="0px"
	 viewBox="0 0 576 512" style="enable-background:new 0 0 576 512;" xml:space="preserve">
<style type="text/css">
	.st0{fill:#404040;}
</style>
<path class="st0" d="M510.6,92.6C516,94.7,521.8,96,528,96c26.5,0,48-21.5,48-48S554.5,0,528,0s-48,21.5-48,48
	c0,2.4,0.4,4.8,0.7,7.1l-95.3,76.3c-5.4-2.1-11.2-3.4-17.4-3.4s-12,1.3-17.4,3.4l-95.3-76.3c0.4-2.3,0.7-4.7,0.7-7.1
	c0-26.5-21.5-48-48-48s-48,21.5-48,48c0,4.3,0.7,8.3,1.8,12.3L60.3,161.8c-3.9-1-8-1.8-12.3-1.8c-26.5,0-48,21.5-48,48
	s21.5,48,48,48s48-21.5,48-48c0-4.3-0.7-8.3-1.8-12.3L195.7,94.2c3.9,1,8,1.8,12.3,1.8c6.1,0,12-1.3,17.4-3.4l95.3,76.3
	c-0.4,2.3-0.7,4.7-0.7,7.1c0,26.5,21.5,48,48,48s48-21.5,48-48c0-2.4-0.4-4.8-0.7-7.1L510.6,92.6L510.6,92.6z M400,320h-64
	c-8.8,0-16,7.2-16,16v160c0,8.8,7.2,16,16,16h64c8.8,0,16-7.2,16-16V336C416,327.2,408.8,320,400,320z M560,192h-64
	c-8.8,0-16,7.2-16,16v288c0,8.8,7.2,16,16,16h64c8.8,0,16-7.2,16-16V208C576,199.2,568.8,192,560,192z M240,192h-64
	c-8.8,0-16,7.2-16,16v288c0,8.8,7.2,16,16,16h64c8.8,0,16-7.2,16-16V208C256,199.2,248.8,192,240,192z M80,352H16
	c-8.8,0-16,7.2-16,16v128c0,8.8,7.2,16,16,16h64c8.8,0,16-7.2,16-16V368C96,359.2,88.8,352,80,352z"/>
</svg>
